# File created by Blade
# Date/Time:  Thu Jan 22 19:49:10 2015
#---------------------------------------------------------
:version 1.10
:name HOM
:units
  mass 1.0
  length 1.000000
  angle deg
:documentation
     Acclaim Skeleton File
:root
   axis xyz
   order TX TY TZ RX RY RZ
   position 0.000000 0.000000 0.000000
   orientation 0 0 0
:bonedata
   begin
      id 1
      name RightUpLeg_dum
      direction -1.000000 0.000000 0.000000
      length 4.478084
      axis 0.0 0.0 0.0 xyz
   end
   begin
      id 2
      name LeftUpLeg_dum
      direction 1.000000 0.000000 0.000000
      length 4.478084
      axis 0.0 0.0 0.0 xyz
   end
   begin
      id 3
      name Spine_dum
      direction 0.000000 1.000000 0.000000
      length 6.068208
      axis 0.0 0.0 0.0 xyz
   end
   begin
      id 4
      name RightUpLeg
      direction 0.000000 -1.000000 0.000000
      length 16.405774
      axis 0.0 0.0 0.0 xyz
      dof rx ry rz
   end
   begin
      id 5
      name RightLeg
      direction 0.000000 -1.000000 0.000000
      length 14.644143
      axis 0.0 0.0 0.0 xyz
      dof rx ry rz
   end
   begin
      id 6
      name RightFoot
      direction 0.000000 -0.258819 0.965926
      length 5.806150
      axis 15.0 0.0 0.0 xyz
      dof rx ry rz
   end
   begin
      id 7
      name RightToeBase
      direction 0.000000 0.000000 1.000000
      length 2.952750
      axis 0.0 0.0 0.0 xyz
      dof rx ry rz
   end
   begin
      id 8
      name LeftUpLeg
      direction 0.000000 -1.000000 0.000000
      length 16.405774
      axis 0.0 0.0 0.0 xyz
      dof rx ry rz
   end
   begin
      id 9
      name LeftLeg
      direction 0.000000 -1.000000 0.000000
      length 14.644143
      axis 0.0 0.0 0.0 xyz
      dof rx ry rz
   end
   begin
      id 10
      name LeftFoot
      direction 0.000000 -0.258819 0.965926
      length 5.806150
      axis 15.0 0.0 0.0 xyz
      dof rx ry rz
   end
   begin
      id 11
      name LeftToeBase
      direction 0.000000 0.000000 1.000000
      length 2.952750
      axis 0.0 0.0 0.0 xyz
      dof rx ry rz
   end
   begin
      id 12
      name Spine
      direction 0.000000 1.000000 0.000000
      length 0.000000
      axis 0.0 0.0 0.0 xyz
      dof rx ry rz
   end
   begin
      id 13
      name Spine_dum1
      direction 0.000000 1.000000 0.000000
      length 10.013923
      axis 0.0 0.0 0.0 xyz
   end
   begin
      id 14
      name Spine_dum2
      direction 0.000000 1.000000 0.000000
      length 10.013923
      axis 0.0 0.0 0.0 xyz
   end
   begin
      id 15
      name Spine_dum3
      direction 0.000000 1.000000 0.000000
      length 15.777476
      axis 0.0 0.0 0.0 xyz
   end
   begin
      id 16
      name RightShoulder
      direction -1.000000 0.000000 0.000000
      length 7.190220
      axis 0.0 0.0 90.0 xyz
      dof rx ry rz
   end
   begin
      id 17
      name RightArm
      direction -1.000000 0.000000 0.000000
      length 10.177469
      axis 0.0 0.0 90.0 xyz
      dof rx ry rz
   end
   begin
      id 18
      name RightForeArm
      direction -1.000000 0.000000 0.000000
      length 8.392114
      axis 0.0 0.0 90.0 xyz
      dof ry rz rx
   end
   begin
      id 19
      name RightHand
      direction -1.000000 0.000000 0.000000
      length 0.000000
      axis 0.0 0.0 90.0 xyz
      dof rx ry rz
   end
   begin
      id 20
      name RightHand_dum1
      direction -1.000000 0.000000 0.000000
      length 3.937000
      axis 0.0 0.0 90.0 xyz
   end
   begin
      id 21
      name RightHand_dum2
      direction 0.000000 0.000000 0.000000
      length 0.000000
      axis 0.0 0.0 90.0 xyz
   end
   begin
      id 22
      name RightHandThumb1
      direction 0.000000 0.000000 1.000000
      length 3.937000
      axis 0.0 0.0 90.0 xyz
      dof rx rz ry
   end
   begin
      id 23
      name LeftShoulder
      direction 1.000000 0.000000 0.000000
      length 7.190220
      axis 0.0 0.0 -90.0 xyz
      dof rx ry rz
   end
   begin
      id 24
      name LeftArm
      direction 1.000000 0.000000 0.000000
      length 10.177469
      axis 0.0 0.0 -90.0 xyz
      dof rx ry rz
   end
   begin
      id 25
      name LeftForeArm
      direction 1.000000 0.000000 0.000000
      length 8.392114
      axis 0.0 0.0 -90.0 xyz
      dof ry rz rx
   end
   begin
      id 26
      name LeftHand
      direction 1.000000 0.000000 0.000000
      length 0.000000
      axis 0.0 0.0 -90.0 xyz
      dof rx ry rz
   end
   begin
      id 27
      name LeftHand_dum1
      direction 1.000000 0.000000 0.000000
      length 3.937000
      axis 0.0 0.0 -90.0 xyz
   end
   begin
      id 28
      name LeftHand_dum2
      direction 0.000000 0.000000 0.000000
      length 0.000000
      axis 0.0 0.0 -90.0 xyz
   end
   begin
      id 29
      name LeftHandThumb1
      direction 0.000000 0.000000 1.000000
      length 3.937000
      axis 0.0 0.0 -90.0 xyz
      dof rx rz ry
   end
   begin
      id 30
      name Head
      direction 0.000000 1.000000 0.000000
      length 4.527550
      axis 0.0 0.0 0.0 xyz
      dof rx ry rz
   end
:hierarchy
   begin
      root RightUpLeg_dum LeftUpLeg_dum Spine_dum
      RightUpLeg_dum RightUpLeg
      LeftUpLeg_dum LeftUpLeg
      Spine_dum Spine
      RightUpLeg RightLeg
      RightLeg RightFoot
      RightFoot RightToeBase
      LeftUpLeg LeftLeg
      LeftLeg LeftFoot
      LeftFoot LeftToeBase
      Spine Spine_dum1 Spine_dum2 Spine_dum3
      Spine_dum1 RightShoulder
      Spine_dum2 LeftShoulder
      Spine_dum3 Head
      RightShoulder RightArm
      RightArm RightForeArm
      RightForeArm RightHand
      RightHand RightHand_dum1 RightHand_dum2
      RightHand_dum2 RightHandThumb1
      LeftShoulder LeftArm
      LeftArm LeftForeArm
      LeftForeArm LeftHand
      LeftHand LeftHand_dum1 LeftHand_dum2
      LeftHand_dum2 LeftHandThumb1
   end

# File created by Blade
# Date/Time:  Thu Jan 22 19:49:01 2015
# Frame Rate: 120.000 fps
#------------------------------------------------------
:FULLY-SPECIFIED
:DEGREES
121
root -2.201191 33.120665 0.929543 8.608018 -4.793562 2.505090
RightUpLeg -2.142461 -4.006450 -1.632657
RightLeg -0.103540 -0.000000 0.000000
RightFoot -11.310258 -3.295071 0.384851
RightToeBase 2.317235 -0.000000 -0.000000
LeftUpLeg -1.617827 3.393667 -0.065148
LeftLeg 1.859291 -0.000000 -0.000000
LeftFoot -11.966650 0.313134 -14.013680
LeftToeBase 9.946899 -0.000000 -0.000000
Spine -10.003044 -1.015700 -1.934074
RightShoulder -20.712943 -13.994597 -24.019349
RightArm 20.115277 28.905922 45.980583
RightForeArm -11.479384 -0.000000 11.770659
RightHand 7.554455 -0.000000 6.138761
RightHandThumb1 -24.326973 -0.000000 -32.862282
LeftShoulder -24.312665 5.741010 29.464473
LeftArm 12.629908 -28.461472 -40.816672
LeftForeArm 20.012239 -0.000000 0.895271
LeftHand -3.886787 -0.000000 -9.410016
LeftHandThumb1 -26.253704 0.000000 33.147579
Head -4.262159 7.287769 -1.110682
122
root -2.201791 33.120710 0.929325 8.622000 -4.772230 2.510156
RightUpLeg -2.143879 -4.018738 -1.632959
RightLeg -0.122306 -0.000000 0.000000
RightFoot -11.312663 -3.296810 0.417603
RightToeBase 2.336628 -0.000000 -0.000000
LeftUpLeg -1.630688 3.359224 -0.065895
LeftLeg 1.848094 -0.000000 -0.000000
LeftFoot -11.960443 0.329786 -14.008658
LeftToeBase 9.990545 -0.000000 -0.000000
Spine -10.039326 -1.014150 -1.934756
RightShoulder -20.717506 -14.005683 -24.038981
RightArm 20.119747 28.913740 46.024310
RightForeArm -11.472424 0.000000 11.765065
RightHand 7.552103 -0.000000 6.185560
RightHandThumb1 -24.326973 -0.000000 -32.862282
LeftShoulder -24.305443 5.743811 29.437206
LeftArm 12.661843 -28.406408 -40.802723
LeftForeArm 20.025919 -0.000000 0.924796
LeftHand -3.900314 -0.000000 -9.412879
LeftHandThumb1 -26.253704 0.000000 33.147579
Head -4.122555 6.758278 -1.143937
123
root -2.203557 33.120623 0.928365 8.628032 -4.750500 2.511679
RightUpLeg -2.140994 -4.033478 -1.628763
RightLeg -0.136720 -0.000000 0.000000
RightFoot -11.308557 -3.301720 0.391530
RightToeBase 2.371658 -0.000000 -0.000000
LeftUpLeg -1.635829 3.339090 -0.060859
LeftLeg 1.838898 -0.000000 -0.000000
LeftFoot -11.956132 0.323326 -14.041947
LeftToeBase 9.992626 -0.000000 -0.000000
Spine -10.058547 -1.016855 -1.938105
RightShoulder -20.728550 -14.017465 -24.046754
RightArm 20.140285 28.900276 46.061776
RightForeArm -11.444424 -0.000000 11.747208
RightHand 7.582339 -0.000000 6.223883
RightHandThumb1 -24.326973 -0.000000 -32.862282
LeftShoulder -24.286228 5.724813 29.424950
LeftArm 12.646389 -28.377450 -40.774434
LeftForeArm 20.018552 0.000000 0.967189
LeftHand -3.889692 -0.000000 -9.453629
LeftHandThumb1 -26.253704 0.000000 33.147579
Head -4.005480 6.264155 -1.199977
124
root -2.205454 33.120336 0.926388 8.639083 -4.726899 2.504062
RightUpLeg -2.147432 -4.035447 -1.615588
RightLeg -0.142402 -0.000000 0.000000
RightFoot -11.298431 -3.299982 0.419608
RightToeBase 2.358252 -0.000000 -0.000000
LeftUpLeg -1.657113 3.339680 -0.045797
LeftLeg 1.847539 -0.000000 -0.000000
LeftFoot -11.960450 0.293878 -14.036226
LeftToeBase 9.946303 -0.000000 -0.000000
Spine -10.077565 -1.035005 -1.912322
RightShoulder -20.739908 -14.046993 -24.081161
RightArm 20.200302 28.917139 46.154610
RightForeArm -11.462881 -0.000000 11.754780
RightHand 7.583298 0.000000 6.249053
RightHandThumb1 -24.326973 -0.000000 -32.862282
LeftShoulder -24.278852 5.711934 29.369447
LeftArm 12.634518 -28.340274 -40.709991
LeftForeArm 20.018822 -0.000000 0.991317
LeftHand -3.878985 -0.000000 -9.474189
LeftHandThumb1 -26.253704 0.000000 33.147579
Head -3.890704 5.812261 -1.252580
125
root -2.205460 33.120406 0.924924 8.653181 -4.709126 2.500573
RightUpLeg -2.164634 -4.041175 -1.609978
RightLeg -0.132859 -0.000000 0.000000
RightFoot -11.308252 -3.321904 0.402118
RightToeBase 2.372436 -0.000000 -0.000000
LeftUpLeg -1.675598 3.318513 -0.040663
LeftLeg 1.848016 -0.000000 -0.000000
LeftFoot -11.960466 0.295601 -14.046538
LeftToeBase 10.022930 -0.000000 -0.000000
Spine -10.101402 -1.054547 -1.893352
RightShoulder -20.760308 -14.087380 -24.093900
RightArm 20.289021 28.886337 46.217468
RightForeArm -11.440942 -0.000000 11.748199
RightHand 7.497579 -0.000000 6.092423
RightHandThumb1 -24.326973 -0.000000 -32.862282
LeftShoulder -24.268538 5.717244 29.323928
LeftArm 12.604321 -28.339780 -40.667391
LeftForeArm 20.067197 -0.000000 1.040658
LeftHand -3.885601 -0.000000 -9.487596
LeftHandThumb1 -26.253704 0.000000 33.147579
Head -3.779661 5.359415 -1.307687
126
root -2.206672 33.120013 0.923153 8.646593 -4.683974 2.509296
RightUpLeg -2.159972 -4.050084 -1.612823
RightLeg -0.126539 -0.000000 0.000000
RightFoot -11.318944 -3.334452 0.421377
RightToeBase 2.397215 -0.000000 -0.000000
LeftUpLeg -1.685234 3.308776 -0.042972
LeftLeg 1.867704 -0.000000 -0.000000
LeftFoot -11.959676 0.276871 -14.040570
LeftToeBase 9.949971 -0.000000 -0.000000
Spine -10.091966 -1.090250 -1.893286
RightShoulder -20.774045 -14.106853 -24.115872
RightArm 20.350768 28.865439 46.299118
RightForeArm -11.408417 -0.000000 11.772819
RightHand 7.476254 -0.000000 6.349523
RightHandThumb1 -24.326973 -0.000000 -32.862282
LeftShoulder -24.251952 5.729910 29.285254
LeftArm 12.568239 -28.373194 -40.628104
LeftForeArm 20.092714 -0.000000 1.071786
LeftHand -3.882883 -0.000000 -9.478091
LeftHandThumb1 -26.253704 0.000000 33.147579
Head -3.697919 5.025288 -1.355253
127
root -2.207727 33.120196 0.921988 8.636886 -4.663121 2.511274
RightUpLeg -2.150634 -4.063002 -1.611299
RightLeg -0.122227 -0.000000 0.000000
RightFoot -11.322274 -3.340922 0.410960
RightToeBase 2.364452 -0.000000 -0.000000
LeftUpLeg -1.684948 3.286154 -0.037067
LeftLeg 1.877813 -0.000000 -0.000000
LeftFoot -11.958955 0.266010 -14.047763
LeftToeBase 9.960941 -0.000000 -0.000000
Spine -10.074122 -1.125541 -1.881641
RightShoulder -20.793075 -14.133983 -24.116773
RightArm 20.428848 28.859808 46.358869
RightForeArm -11.445893 -0.000000 11.796844
RightHand 7.465297 -0.000000 6.396390
RightHandThumb1 -24.326973 -0.000000 -32.862282
LeftShoulder -24.239410 5.723046 29.258344
LeftArm 12.497385 -28.388106 -40.595239
LeftForeArm 20.130350 0.000000 1.127494
LeftHand -3.922578 -0.000000 -9.411196
LeftHandThumb1 -26.253704 0.000000 33.147579
Head -3.634113 4.785028 -1.378444
128
root -2.208103 33.119560 0.919540 8.633661 -4.655401 2.507763
RightUpLeg -2.158627 -4.069397 -1.605570
RightLeg -0.104761 -0.000000 0.000000
RightFoot -11.337737 -3.345298 0.409129
RightToeBase 2.410273 -0.000000 -0.000000
LeftUpLeg -1.691936 3.279081 -0.032136
LeftLeg 1.888509 -0.000000 -0.000000
LeftFoot -11.973257 0.267742 -14.054246
LeftToeBase 10.013453 -0.000000 -0.000000
Spine -10.061735 -1.165635 -1.846921
RightShoulder -20.784070 -14.149637 -24.163032
RightArm 20.480388 28.834035 46.430538
RightForeArm -11.479791 -0.000000 11.840851
RightHand 7.478317 -0.000000 6.427156
RightHandThumb1 -24.326973 -0.000000 -32.862282
LeftShoulder -24.227211 5.727372 29.208936
LeftArm 12.416579 -28.415604 -40.542143
LeftForeArm 20.155703 -0.000000 1.157209
LeftHand -3.945546 -0.000000 -9.386143
LeftHandThumb1 -26.253704 0.000000 33.147579
Head -3.600182 4.833319 -1.446797
129
root -2.209326 33.119284 0.918838 8.610999 -4.644461 2.505010
RightUpLeg -2.142425 -4.061872 -1.601459
RightLeg -0.087764 -0.000000 0.000000
RightFoot -11.341157 -3.355622 0.402376
RightToeBase 2.358230 -0.000000 -0.000000
LeftUpLeg -1.679525 3.291544 -0.025379
LeftLeg 1.905292 -0.000000 -0.000000
LeftFoot -11.982087 0.247179 -14.047072
LeftToeBase 10.008936 -0.000000 -0.000000
Spine -10.021142 -1.200042 -1.832001
RightShoulder -20.781204 -14.162891 -24.165423
RightArm 20.511488 28.786445 46.447843
RightForeArm -11.482560 -0.000000 11.880080
RightHand 7.488272 -0.000000 6.399324
RightHandThumb1 -24.326973 -0.000000 -32.862282
LeftShoulder -24.227897 5.750749 29.188344
LeftArm 12.374895 -28.470311 -40.549029
LeftForeArm 20.203133 -0.000000 1.185262
LeftHand -3.965671 -0.000000 -9.320136
LeftHandThumb1 -26.253704 0.000000 33.147579
Head -3.586934 4.844069 -1.463991
